<svg width="114" height="40" viewBox="0 0 114 40" fill="none" xmlns="http://www.w3.org/2000/svg">
<rect width="113.571" height="40" rx="4" fill="#E5ECF4"/>
<path fill-rule="evenodd" clip-rule="evenodd" d="M67.4866 30.6999C67.039 30.8427 66.5343 30.9142 65.9724 30.9142C65.3152 30.9142 64.7366 30.8213 64.2366 30.6356C63.7366 30.4499 63.32 30.1927 62.9866 29.8642C62.6533 29.5356 62.4009 29.1499 62.2295 28.707C62.0581 28.2642 61.9724 27.7808 61.9724 27.257V26.8284H63.8581V27.1713C63.8581 27.7713 64.0319 28.2499 64.3795 28.607C64.7271 28.9642 65.2676 29.1427 66.0009 29.1427C66.5724 29.1427 66.9962 29.0189 67.2724 28.7713C67.5486 28.5237 67.6866 28.2284 67.6866 27.8856C67.6866 27.7237 67.6581 27.5689 67.6009 27.4213C67.5438 27.2737 67.4438 27.1404 67.3009 27.0213C67.1581 26.9023 66.9628 26.7951 66.7152 26.6999C66.4676 26.6046 66.1533 26.5237 65.7724 26.457C65.2676 26.3713 64.8057 26.2594 64.3866 26.1213C63.9676 25.9832 63.6033 25.7999 63.2938 25.5713C62.9843 25.3427 62.7438 25.057 62.5724 24.7142C62.4009 24.3713 62.3152 23.9523 62.3152 23.457V23.3713C62.3152 22.9618 62.3986 22.5832 62.5652 22.2356C62.7319 21.888 62.9652 21.5856 63.2652 21.3284C63.5652 21.0713 63.9271 20.8713 64.3509 20.7284C64.7747 20.5856 65.2486 20.5142 65.7724 20.5142C66.3628 20.5142 66.8866 20.5975 67.3438 20.7642C67.8009 20.9308 68.1843 21.157 68.4938 21.4427C68.8033 21.7284 69.0366 22.057 69.1938 22.4284C69.3509 22.7999 69.4295 23.1904 69.4295 23.5999V24.1142H67.5438V23.7713C67.5438 23.3713 67.389 23.0237 67.0795 22.7284C66.77 22.4332 66.3343 22.2856 65.7724 22.2856C65.2962 22.2856 64.92 22.3832 64.6438 22.5784C64.3676 22.7737 64.2295 23.038 64.2295 23.3713C64.2295 23.5427 64.2628 23.6975 64.3295 23.8356C64.3962 23.9737 64.5128 24.0975 64.6795 24.207C64.8462 24.3165 65.0652 24.4142 65.3366 24.4999C65.6081 24.5856 65.9533 24.6665 66.3724 24.7427C67.42 24.9332 68.22 25.2523 68.7724 25.6999C69.3247 26.1475 69.6009 26.8094 69.6009 27.6856V27.857C69.6009 28.3237 69.5176 28.7451 69.3509 29.1213C69.1843 29.4975 68.9438 29.8189 68.6295 30.0856C68.3152 30.3523 67.9343 30.557 67.4866 30.6999ZM39.3285 30.7142L39.8142 28.5713H43.2142L43.6999 30.7142H45.6713L43.2856 20.7142H39.7428L37.3571 30.7142H39.3285ZM42.7999 26.7713H40.2142L41.3856 21.657H41.6428L42.7999 26.7713ZM47.7907 29.6856V33.5713H45.9907V23.6284H47.7907V24.657H48.0479C48.2383 24.2665 48.5145 23.9642 48.8764 23.7499C49.2383 23.5356 49.7003 23.4284 50.2622 23.4284C50.6812 23.4284 51.0788 23.5094 51.455 23.6713C51.8312 23.8332 52.1598 24.0689 52.4407 24.3784C52.7217 24.688 52.9455 25.0665 53.1122 25.5142C53.2788 25.9618 53.3622 26.4713 53.3622 27.0427V27.2999C53.3622 27.8808 53.2812 28.3951 53.1193 28.8427C52.9574 29.2904 52.7383 29.6689 52.4622 29.9784C52.186 30.288 51.8598 30.5213 51.4836 30.6784C51.1074 30.8356 50.7003 30.9142 50.2622 30.9142C49.9383 30.9142 49.6574 30.8808 49.4193 30.8142C49.1812 30.7475 48.9741 30.657 48.7979 30.5427C48.6217 30.4284 48.4741 30.2975 48.355 30.1499C48.236 30.0023 48.1336 29.8475 48.0479 29.6856H47.7907ZM49.6764 29.1999C49.1145 29.1999 48.6598 29.0213 48.3122 28.6642C47.9645 28.307 47.7907 27.838 47.7907 27.257V27.0856C47.7907 26.5046 47.9645 26.0356 48.3122 25.6784C48.6598 25.3213 49.1145 25.1427 49.6764 25.1427C50.2383 25.1427 50.6931 25.3165 51.0407 25.6642C51.3883 26.0118 51.5622 26.4856 51.5622 27.0856V27.257C51.5622 27.857 51.3883 28.3308 51.0407 28.6784C50.6931 29.0261 50.2383 29.1999 49.6764 29.1999ZM55.8958 29.6856V33.5713H54.0958V23.6284H55.8958V24.657H56.153C56.3435 24.2665 56.6196 23.9642 56.9815 23.7499C57.3435 23.5356 57.8054 23.4284 58.3673 23.4284C58.7863 23.4284 59.1839 23.5094 59.5601 23.6713C59.9363 23.8332 60.2649 24.0689 60.5458 24.3784C60.8268 24.688 61.0506 25.0665 61.2173 25.5142C61.3839 25.9618 61.4673 26.4713 61.4673 27.0427V27.2999C61.4673 27.8808 61.3863 28.3951 61.2244 28.8427C61.0625 29.2904 60.8435 29.6689 60.5673 29.9784C60.2911 30.288 59.9649 30.5213 59.5887 30.6784C59.2125 30.8356 58.8054 30.9142 58.3673 30.9142C58.0434 30.9142 57.7625 30.8808 57.5244 30.8142C57.2863 30.7475 57.0792 30.657 56.903 30.5427C56.7268 30.4284 56.5792 30.2975 56.4601 30.1499C56.3411 30.0023 56.2387 29.8475 56.153 29.6856H55.8958ZM57.7815 29.1999C57.2196 29.1999 56.7649 29.0213 56.4173 28.6642C56.0696 28.307 55.8958 27.838 55.8958 27.257V27.0856C55.8958 26.5046 56.0696 26.0356 56.4173 25.6784C56.7649 25.3213 57.2196 25.1427 57.7815 25.1427C58.3435 25.1427 58.7982 25.3165 59.1458 25.6642C59.4935 26.0118 59.6673 26.4856 59.6673 27.0856V27.257C59.6673 27.857 59.4935 28.3308 59.1458 28.6784C58.7982 29.0261 58.3435 29.1999 57.7815 29.1999ZM76.6775 30.7142V28.9999H74.7632C74.506 28.9999 74.3775 28.857 74.3775 28.5713V25.3427H76.9346V23.6284H74.3775V20.7142H72.5775V23.6284H70.4775V25.3427H72.5775V29.5999C72.5775 29.9237 72.6798 30.1904 72.8846 30.3999C73.0894 30.6094 73.3537 30.7142 73.6775 30.7142H76.6775ZM83.4326 30.6713C82.9897 30.8332 82.5254 30.9142 82.0397 30.9142C81.554 30.9142 81.0897 30.8332 80.6469 30.6713C80.204 30.5094 79.8111 30.2737 79.4683 29.9642C79.1254 29.6546 78.854 29.2737 78.654 28.8213C78.454 28.3689 78.354 27.8475 78.354 27.257V27.0856C78.354 26.5046 78.454 25.988 78.654 25.5356C78.854 25.0832 79.1254 24.6999 79.4683 24.3856C79.8111 24.0713 80.204 23.8332 80.6469 23.6713C81.0897 23.5094 81.554 23.4284 82.0397 23.4284C82.5254 23.4284 82.9897 23.5094 83.4326 23.6713C83.8754 23.8332 84.2683 24.0713 84.6111 24.3856C84.954 24.6999 85.2254 25.0832 85.4254 25.5356C85.6254 25.988 85.7254 26.5046 85.7254 27.0856V27.257C85.7254 27.8475 85.6254 28.3689 85.4254 28.8213C85.2254 29.2737 84.954 29.6546 84.6111 29.9642C84.2683 30.2737 83.8754 30.5094 83.4326 30.6713ZM82.0397 29.1999C81.7826 29.1999 81.5397 29.157 81.3111 29.0713C81.0826 28.9856 80.8826 28.8618 80.7111 28.6999C80.5397 28.538 80.404 28.3404 80.304 28.107C80.204 27.8737 80.154 27.6094 80.154 27.3142V27.0284C80.154 26.7332 80.204 26.4689 80.304 26.2356C80.404 26.0023 80.5397 25.8046 80.7111 25.6427C80.8826 25.4808 81.0826 25.357 81.3111 25.2713C81.5397 25.1856 81.7826 25.1427 82.0397 25.1427C82.2969 25.1427 82.5397 25.1856 82.7683 25.2713C82.9969 25.357 83.1969 25.4808 83.3683 25.6427C83.5397 25.8046 83.6754 26.0023 83.7754 26.2356C83.8754 26.4689 83.9254 26.7332 83.9254 27.0284V27.3142C83.9254 27.6094 83.8754 27.8737 83.7754 28.107C83.6754 28.3404 83.5397 28.538 83.3683 28.6999C83.1969 28.8618 82.9969 28.9856 82.7683 29.0713C82.5397 29.157 82.2969 29.1999 82.0397 29.1999ZM91.2591 28.9999V30.7142H86.3734V28.9999H87.8305V25.3427H86.5448V23.6284H89.5448V24.657H89.802C89.9353 24.2665 90.1615 23.9642 90.4805 23.7499C90.7996 23.5356 91.1829 23.4284 91.6305 23.4284C92.3353 23.4284 92.902 23.6499 93.3305 24.0927C93.7591 24.5356 93.9734 25.2094 93.9734 26.1142V26.4284L92.1162 26.5999V26.3999C92.1162 26.0094 92.0162 25.6975 91.8162 25.4642C91.6162 25.2308 91.3162 25.1142 90.9162 25.1142C90.5162 25.1142 90.202 25.2523 89.9734 25.5284C89.7448 25.8046 89.6305 26.1999 89.6305 26.7142V28.9999H91.2591ZM98.3213 30.9142C98.788 30.9142 99.1951 30.8618 99.5428 30.757C99.8904 30.6523 100.186 30.5189 100.428 30.357C100.671 30.1951 100.869 30.0165 101.021 29.8213C101.174 29.6261 101.293 29.438 101.378 29.257L99.8356 28.3999C99.7309 28.6189 99.5594 28.807 99.3213 28.9642C99.0832 29.1213 98.7404 29.1999 98.2928 29.1999C98.0642 29.1999 97.8475 29.1642 97.6428 29.0927C97.438 29.0213 97.2571 28.9213 97.0999 28.7927C96.9428 28.6642 96.819 28.5118 96.7285 28.3356C96.638 28.1594 96.588 27.9665 96.5785 27.757H101.778V26.7999C101.778 26.4284 101.712 26.0451 101.578 25.6499C101.445 25.2546 101.236 24.8927 100.95 24.5642C100.664 24.2356 100.302 23.9642 99.8642 23.7499C99.4261 23.5356 98.9023 23.4284 98.2928 23.4284C97.7975 23.4284 97.3332 23.5165 96.8999 23.6927C96.4666 23.8689 96.088 24.1142 95.7642 24.4284C95.4404 24.7427 95.1856 25.1237 94.9999 25.5713C94.8142 26.0189 94.7213 26.5142 94.7213 27.057V27.1427C94.7213 27.7332 94.8094 28.2618 94.9856 28.7284C95.1618 29.1951 95.4094 29.5904 95.7285 29.9142C96.0475 30.238 96.4261 30.4856 96.8642 30.657C97.3023 30.8284 97.788 30.9142 98.3213 30.9142ZM96.6071 26.2142H99.9499C99.8928 25.8808 99.7142 25.6046 99.4142 25.3856C99.1142 25.1665 98.7356 25.057 98.2785 25.057C97.8213 25.057 97.4499 25.1737 97.1642 25.407C96.8785 25.6404 96.6928 25.9094 96.6071 26.2142Z" fill="#495567"/>
<path fill-rule="evenodd" clip-rule="evenodd" d="M51.8255 9.60386C51.7422 9.63958 51.6553 9.65744 51.5648 9.65744C51.4696 9.65744 51.3815 9.63958 51.3005 9.60386C51.2196 9.56815 51.1481 9.52053 51.0862 9.46101C51.0243 9.40148 50.9755 9.33005 50.9398 9.24672C50.9041 9.16339 50.8862 9.0741 50.8862 8.97886C50.8862 8.88363 50.9041 8.79434 50.9398 8.71101C50.9755 8.62767 51.0243 8.55625 51.0862 8.49672C51.1481 8.4372 51.2196 8.38958 51.3005 8.35386C51.3815 8.31815 51.4696 8.30029 51.5648 8.30029C51.6553 8.30029 51.7422 8.31815 51.8255 8.35386C51.9088 8.38958 51.9815 8.4372 52.0434 8.49672C52.1053 8.55625 52.1541 8.62767 52.1898 8.71101C52.2255 8.79434 52.2434 8.88363 52.2434 8.97886C52.2434 9.0741 52.2255 9.16339 52.1898 9.24672C52.1541 9.33005 52.1053 9.40148 52.0434 9.46101C51.9815 9.52053 51.9088 9.56815 51.8255 9.60386ZM38.4786 12.5003L38.2357 13.5717H37.25L38.4429 8.57172H40.2143L41.4071 13.5717H40.4214L40.1786 12.5003H38.4786ZM38.6786 11.6003H39.9714L39.3929 9.04315H39.2643L38.6786 11.6003ZM44.2311 13.5717L45.2454 10.0289H44.274L43.4383 13.1432H43.3097L42.474 10.0289H41.5026L42.5168 13.5717H44.2311ZM47.698 13.5324C47.5265 13.6253 47.3265 13.6717 47.098 13.6717C46.8837 13.6717 46.6825 13.6312 46.4944 13.5503C46.3063 13.4693 46.1408 13.3503 45.998 13.1932C45.8551 13.036 45.742 12.8455 45.6587 12.6217C45.5753 12.3979 45.5337 12.1432 45.5337 11.8574V11.7432C45.5337 11.4622 45.5741 11.2098 45.6551 10.986C45.7361 10.7622 45.8456 10.5717 45.9837 10.4146C46.1218 10.2574 46.2825 10.1372 46.4658 10.0539C46.6491 9.97053 46.8456 9.92886 47.0551 9.92886C47.3075 9.92886 47.5111 9.97172 47.6658 10.0574C47.8206 10.1432 47.9432 10.2765 48.0337 10.4574H48.1622V10.0289H49.0622V12.5003C49.0622 12.6431 49.1265 12.7146 49.2551 12.7146H49.3908V13.5717H48.7765C48.6146 13.5717 48.4825 13.5241 48.3801 13.4289C48.2777 13.3336 48.2265 13.2098 48.2265 13.0574H48.098C48.0027 13.2812 47.8694 13.4396 47.698 13.5324ZM47.298 12.8146C47.0361 12.8146 46.8265 12.7277 46.6694 12.5539C46.5122 12.3801 46.4337 12.1432 46.4337 11.8432V11.7574C46.4337 11.4574 46.5122 11.2205 46.6694 11.0467C46.8265 10.8729 47.0361 10.786 47.298 10.786C47.5599 10.786 47.7694 10.8729 47.9265 11.0467C48.0837 11.2205 48.1622 11.4574 48.1622 11.7574V11.8432C48.1622 12.1432 48.0837 12.3801 47.9265 12.5539C47.7694 12.7277 47.5599 12.8146 47.298 12.8146ZM53.0505 12.7146H52.0219V10.0289H50.0077V10.886H51.1219V12.7146H49.9219V13.5717H53.0505V12.7146ZM56.0316 12.7146H57.1888V13.5717H53.8888V12.7146H55.1316V9.42886H53.9316V8.57172H56.0316V12.7146ZM59.2556 13.6717C59.4842 13.6717 59.6842 13.6253 59.8556 13.5324C60.027 13.4396 60.1604 13.2812 60.2556 13.0574H60.3842C60.3842 13.2098 60.4354 13.3336 60.5378 13.4289C60.6401 13.5241 60.7723 13.5717 60.9342 13.5717H61.5485V12.7146H61.4128C61.2842 12.7146 61.2199 12.6431 61.2199 12.5003V10.0289H60.3199V10.4574H60.1913C60.1008 10.2765 59.9782 10.1432 59.8235 10.0574C59.6687 9.97172 59.4651 9.92886 59.2128 9.92886C59.0032 9.92886 58.8068 9.97053 58.6235 10.0539C58.4401 10.1372 58.2794 10.2574 58.1413 10.4146C58.0032 10.5717 57.8937 10.7622 57.8128 10.986C57.7318 11.2098 57.6913 11.4622 57.6913 11.7432V11.8574C57.6913 12.1432 57.733 12.3979 57.8163 12.6217C57.8997 12.8455 58.0128 13.036 58.1556 13.1932C58.2985 13.3503 58.4639 13.4693 58.652 13.5503C58.8401 13.6312 59.0413 13.6717 59.2556 13.6717ZM58.827 12.5539C58.9842 12.7277 59.1937 12.8146 59.4556 12.8146C59.7175 12.8146 59.927 12.7277 60.0842 12.5539C60.2413 12.3801 60.3199 12.1432 60.3199 11.8432V11.7574C60.3199 11.4574 60.2413 11.2205 60.0842 11.0467C59.927 10.8729 59.7175 10.786 59.4556 10.786C59.1937 10.786 58.9842 10.8729 58.827 11.0467C58.6699 11.2205 58.5913 11.4574 58.5913 11.7574V11.8432C58.5913 12.1432 58.6699 12.3801 58.827 12.5539ZM64.001 13.6717C64.2201 13.6717 64.4236 13.6324 64.6117 13.5539C64.7998 13.4753 64.9629 13.3586 65.101 13.2039C65.2391 13.0491 65.3486 12.8598 65.4296 12.636C65.5105 12.4122 65.551 12.1551 65.551 11.8646V11.736C65.551 11.4503 65.5094 11.1955 65.426 10.9717C65.3427 10.7479 65.2308 10.5586 65.0903 10.4039C64.9498 10.2491 64.7855 10.1312 64.5975 10.0503C64.4094 9.96934 64.2105 9.92886 64.001 9.92886C63.7201 9.92886 63.4891 9.98244 63.3082 10.0896C63.1272 10.1967 62.9891 10.3479 62.8939 10.5431H62.7653V8.57172H61.8653V13.5717H62.7653V13.0574H62.8939C62.9367 13.1384 62.9879 13.2158 63.0474 13.2896C63.107 13.3634 63.1808 13.4289 63.2689 13.486C63.357 13.5431 63.4605 13.5884 63.5796 13.6217C63.6986 13.6551 63.8391 13.6717 64.001 13.6717ZM63.026 12.5467C63.1998 12.7253 63.4272 12.8146 63.7082 12.8146C63.9891 12.8146 64.2165 12.7277 64.3903 12.5539C64.5641 12.3801 64.651 12.1432 64.651 11.8432V11.7574C64.651 11.4574 64.5641 11.2205 64.3903 11.0467C64.2165 10.8729 63.9891 10.786 63.7082 10.786C63.4272 10.786 63.1998 10.8753 63.026 11.0539C62.8522 11.2324 62.7653 11.467 62.7653 11.7574V11.8432C62.7653 12.1336 62.8522 12.3682 63.026 12.5467ZM69.3464 12.7146H68.1893V8.57172H66.0893V9.42886H67.2893V12.7146H66.0464V13.5717H69.3464V12.7146ZM72.3954 13.5932C72.2216 13.6455 72.018 13.6717 71.7847 13.6717C71.518 13.6717 71.2752 13.6289 71.0561 13.5431C70.8371 13.4574 70.6478 13.3336 70.4883 13.1717C70.3287 13.0098 70.2049 12.8122 70.1168 12.5789C70.0287 12.3455 69.9847 12.0812 69.9847 11.786V11.7432C69.9847 11.4717 70.0311 11.2241 70.124 11.0003C70.2168 10.7765 70.3442 10.586 70.5061 10.4289C70.668 10.2717 70.8573 10.1491 71.074 10.061C71.2906 9.97291 71.5228 9.92886 71.7704 9.92886C72.0752 9.92886 72.3371 9.98244 72.5561 10.0896C72.7752 10.1967 72.9561 10.3324 73.099 10.4967C73.2418 10.661 73.3466 10.842 73.4133 11.0396C73.4799 11.2372 73.5133 11.4289 73.5133 11.6146V12.0932H70.9133C70.918 12.1979 70.943 12.2943 70.9883 12.3824C71.0335 12.4705 71.0954 12.5467 71.174 12.611C71.2526 12.6753 71.343 12.7253 71.4454 12.761C71.5478 12.7967 71.6561 12.8146 71.7704 12.8146C71.9942 12.8146 72.1656 12.7753 72.2847 12.6967C72.4037 12.6182 72.4895 12.5241 72.5418 12.4146L73.3133 12.8432C73.2704 12.9336 73.2109 13.0277 73.1347 13.1253C73.0585 13.2229 72.9597 13.3122 72.8383 13.3931C72.7168 13.4741 72.5692 13.5408 72.3954 13.5932ZM72.599 11.3217H70.9276C70.9704 11.1693 71.0633 11.0348 71.2061 10.9182C71.349 10.8015 71.5347 10.7432 71.7633 10.7432C71.9918 10.7432 72.1811 10.7979 72.3311 10.9074C72.4811 11.017 72.5704 11.1551 72.599 11.3217ZM80.5505 13.5503C80.3291 13.6312 80.0969 13.6717 79.8541 13.6717C79.6112 13.6717 79.3791 13.6312 79.1576 13.5503C78.9362 13.4693 78.7398 13.3515 78.5684 13.1967C78.3969 13.042 78.2612 12.8515 78.1612 12.6253C78.0612 12.3991 78.0112 12.1384 78.0112 11.8432V11.7574C78.0112 11.467 78.0612 11.2086 78.1612 10.9824C78.2612 10.7562 78.3969 10.5646 78.5684 10.4074C78.7398 10.2503 78.9362 10.1312 79.1576 10.0503C79.3791 9.96934 79.6112 9.92886 79.8541 9.92886C80.0969 9.92886 80.3291 9.96934 80.5505 10.0503C80.7719 10.1312 80.9684 10.2503 81.1398 10.4074C81.3112 10.5646 81.4469 10.7562 81.5469 10.9824C81.6469 11.2086 81.6969 11.467 81.6969 11.7574V11.8432C81.6969 12.1384 81.6469 12.3991 81.5469 12.6253C81.4469 12.8515 81.3112 13.042 81.1398 13.1967C80.9684 13.3515 80.7719 13.4693 80.5505 13.5503ZM79.8541 12.8146C79.7255 12.8146 79.6041 12.7931 79.4898 12.7503C79.3755 12.7074 79.2755 12.6455 79.1898 12.5646C79.1041 12.4836 79.0362 12.3848 78.9862 12.2681C78.9362 12.1515 78.9112 12.0193 78.9112 11.8717V11.7289C78.9112 11.5812 78.9362 11.4491 78.9862 11.3324C79.0362 11.2158 79.1041 11.117 79.1898 11.036C79.2755 10.9551 79.3755 10.8932 79.4898 10.8503C79.6041 10.8074 79.7255 10.786 79.8541 10.786C79.9827 10.786 80.1041 10.8074 80.2184 10.8503C80.3327 10.8932 80.4327 10.9551 80.5184 11.036C80.6041 11.117 80.6719 11.2158 80.7219 11.3324C80.7719 11.4491 80.7969 11.5812 80.7969 11.7289V11.8717C80.7969 12.0193 80.7719 12.1515 80.7219 12.2681C80.6719 12.3848 80.6041 12.4836 80.5184 12.5646C80.4327 12.6455 80.3327 12.7074 80.2184 12.7503C80.1041 12.7931 79.9827 12.8146 79.8541 12.8146ZM83.1781 11.7289V13.5717H82.2781V10.0289H83.1781V10.5574H83.3066C83.3876 10.3574 83.5185 10.2027 83.6995 10.0932C83.8804 9.98363 84.0923 9.92886 84.3352 9.92886C84.5066 9.92886 84.6673 9.95625 84.8173 10.011C84.9673 10.0658 85.0995 10.1503 85.2138 10.2646C85.3281 10.3789 85.4173 10.5241 85.4816 10.7003C85.5459 10.8765 85.5781 11.086 85.5781 11.3289V13.5717H84.6781V11.5574C84.6781 11.3051 84.6173 11.1062 84.4959 10.961C84.3745 10.8158 84.1995 10.7431 83.9709 10.7431C83.7043 10.7431 83.5054 10.8324 83.3745 11.011C83.2435 11.1896 83.1781 11.4289 83.1781 11.7289ZM93.3832 12.7146H92.426C92.2975 12.7146 92.2332 12.6432 92.2332 12.5003V10.886H93.5117V10.0289H92.2332V8.57172H91.3332V10.0289H90.2832V10.886H91.3332V13.0146C91.3332 13.1765 91.3844 13.3098 91.4867 13.4146C91.5891 13.5193 91.7213 13.5717 91.8832 13.5717H93.3832V12.7146ZM95.35 11.7289V13.5717H94.45V8.57172H95.35V10.6003H95.4786C95.569 10.386 95.7024 10.2205 95.8786 10.1039C96.0548 9.9872 96.2714 9.92886 96.5286 9.92886C96.7048 9.92886 96.8667 9.95744 97.0143 10.0146C97.1619 10.0717 97.2905 10.1574 97.4 10.2717C97.5095 10.386 97.5952 10.5324 97.6571 10.711C97.719 10.8896 97.75 11.1003 97.75 11.3432V13.5717H96.85V11.5574C96.85 11.3051 96.7893 11.1062 96.6679 10.961C96.5464 10.8158 96.3714 10.7432 96.1429 10.7432C95.8762 10.7432 95.6774 10.8324 95.5464 11.011C95.4155 11.1896 95.35 11.4289 95.35 11.7289ZM100.153 13.6717C100.386 13.6717 100.589 13.6455 100.763 13.5932C100.937 13.5408 101.085 13.4741 101.206 13.3931C101.328 13.3122 101.426 13.2229 101.503 13.1253C101.579 13.0277 101.638 12.9336 101.681 12.8432L100.91 12.4146C100.857 12.5241 100.772 12.6182 100.653 12.6967C100.534 12.7753 100.362 12.8146 100.138 12.8146C100.024 12.8146 99.9156 12.7967 99.8133 12.761C99.7109 12.7253 99.6204 12.6753 99.5418 12.611C99.4633 12.5467 99.4014 12.4705 99.3561 12.3824C99.3109 12.2943 99.2859 12.1979 99.2811 12.0932H101.881V11.6146C101.881 11.4289 101.848 11.2372 101.781 11.0396C101.714 10.842 101.61 10.661 101.467 10.4967C101.324 10.3324 101.143 10.1967 100.924 10.0896C100.705 9.98244 100.443 9.92886 100.138 9.92886C99.8906 9.92886 99.6585 9.97291 99.4418 10.061C99.2252 10.1491 99.0359 10.2717 98.874 10.4289C98.7121 10.586 98.5847 10.7765 98.4918 11.0003C98.399 11.2241 98.3526 11.4717 98.3526 11.7432V11.786C98.3526 12.0812 98.3966 12.3455 98.4847 12.5789C98.5728 12.8122 98.6966 13.0098 98.8561 13.1717C99.0156 13.3336 99.2049 13.4574 99.424 13.5431C99.643 13.6289 99.8859 13.6717 100.153 13.6717ZM99.2954 11.3217H100.967C100.938 11.1551 100.849 11.017 100.699 10.9074C100.549 10.7979 100.36 10.7432 100.131 10.7432C99.9025 10.7432 99.7168 10.8015 99.574 10.9182C99.4311 11.0348 99.3383 11.1693 99.2954 11.3217Z" fill="#495567"/>
<path fill-rule="evenodd" clip-rule="evenodd" d="M21.1072 11.5947C21.8128 10.7331 23.0235 10.0715 24.0594 10C24.233 11.1779 23.7533 12.3315 23.1194 13.147C22.4418 14.0231 21.2724 14.7005 20.1406 14.6654C19.9341 13.5372 20.4636 12.3763 21.1072 11.5947ZM24.2975 14.6667C25.6762 14.6667 27.136 15.4124 28.1747 16.6973C24.7693 18.5503 25.321 23.3774 28.7619 24.6698C28.2888 25.7108 28.0618 26.175 27.4518 27.0971C26.6007 28.3833 25.4022 29.9861 23.9145 29.9974C23.303 30.0037 22.9018 29.8211 22.4691 29.6243C21.9678 29.3961 21.4242 29.1487 20.4622 29.1541C19.5054 29.1587 18.9532 29.4031 18.445 29.6279C18.0012 29.8242 17.591 30.0057 16.9744 29.9999C15.4879 29.9874 14.3515 28.541 13.5005 27.2548C11.1225 23.6601 10.8713 19.4399 12.3388 17.1953C13.3826 15.6013 15.0288 14.6692 16.5749 14.6692C17.3989 14.6692 18.063 14.9041 18.6958 15.1279C19.2718 15.3316 19.8219 15.5262 20.4432 15.5262C21.018 15.5262 21.4906 15.3486 22.0062 15.1548C22.6246 14.9223 23.3049 14.6667 24.2975 14.6667Z" fill="#495567"/>
</svg>
